<svg xmlns="http://www.w3.org/2000/svg" width="381.54269"
     height="72" viewBox="0 0 305.23415 57.6" version="1.1">
    <path d="m 0,-1.5258784e-6 41.485861,0 C 44.168485,0.1827929 46.875961,0.59046391 49.378088,1.6280524 c 2.356944,0.9731502 4.556931,2.5288753 5.901513,4.7434495 1.024134,1.6688211 1.504155,3.6361621 1.517234,5.5877231 -0.004,3.903121 -0.004,7.807558 0,11.711994 -0.0026,0.758794 -0.133415,1.513644 -0.345302,2.242191 -0.703681,2.418409 -2.146362,4.632984 -4.139692,6.174244 -2.453732,1.951559 -5.536592,2.910244 -8.598526,3.341586 -0.875025,0.1394 -1.76313,0.08812 -2.644694,0.09468 -5.441111,0.0013 -10.880916,0 -16.320718,0.0013 -0.01969,-3.850518 -0.004,-7.701037 -0.0092,-11.551555 7.438366,0 14.875423,0 22.312482,0 0.0013,-4.020163 0.0013,-8.040325 0,-12.059172 -11.533588,0 -23.068483,0 -34.603378,0 0,15.228485 0,30.45697 0,45.685455 L 0,57.599968 0,-1.5258784e-6 Z"
          style="fill:#ffffff;"/>
    <path transform="scale(0.8,0.8)"
          d="M 160.23633 10.080078 C 160.23633 21.739798 160.23508 33.396921 160.23633 45.056641 C 160.38675 47.415542 160.95108 49.813385 162.27539 51.800781 C 163.59807 53.844069 165.71202 55.293575 168.00586 56.023438 C 170.32258 56.779607 172.7899 56.991616 175.21289 56.884766 C 177.74053 56.740108 180.35136 56.266073 182.49805 54.835938 C 184.26052 53.724704 185.52022 51.941058 186.23633 49.998047 C 186.98022 47.885718 187.24303 45.627169 187.20703 43.396484 C 187.20578 40.713746 187.20703 38.032038 187.20703 35.347656 C 187.09913 33.043 186.72451 30.694589 185.66016 28.625 C 184.54186 26.292399 182.43612 24.489284 179.99023 23.695312 C 177.18956 22.778052 174.13692 22.649724 171.26758 23.310547 C 169.1356 23.805341 167.18915 24.932564 165.5918 26.421875 C 165.59305 20.977498 165.5918 15.532271 165.5918 10.087891 C 163.80643 10.069791 162.0217 10.085003 160.23633 10.080078 z M 173.87891 27.544922 C 175.39466 27.547773 176.91942 27.804129 178.2793 28.478516 C 179.75075 29.193584 180.81784 30.593369 181.29688 32.148438 C 181.78736 33.649257 181.88263 35.244591 181.85156 36.814453 C 181.84531 39.321302 181.86125 41.827136 181.84375 44.333984 C 181.76525 46.449598 181.32755 48.732969 179.78906 50.292969 C 178.20153 51.844747 175.87516 52.278661 173.73828 52.244141 C 171.60303 52.286891 169.28508 51.832721 167.70898 50.279297 C 166.16232 48.737379 165.65715 46.464607 165.60156 44.345703 C 165.58044 42.274472 165.59805 40.204356 165.5918 38.134766 C 165.60817 36.439972 165.48956 34.713934 165.92773 33.058594 C 166.31848 31.452567 167.19214 29.931728 168.55078 28.966797 C 169.66909 28.167894 171.01734 27.764109 172.37109 27.621094 L 172.37305 27.621094 C 172.86966 27.571781 173.37366 27.543971 173.87891 27.544922 z "
          style="fill:#ffffff;"/>
    <path transform="scale(0.8,0.8)"
          d="M 89.076172 14.333984 L 89.076172 56.261719 L 94.400391 56.261719 L 94.400391 38.076172 C 96.272408 38.077797 98.141653 38.073578 100.01367 38.080078 C 104.02584 44.150761 108.09072 50.185485 112.09961 56.257812 C 114.32478 56.264437 116.55054 56.263016 118.77734 56.259766 C 114.45454 49.985248 110.1165 43.723946 105.77734 37.460938 C 107.94365 36.85765 110.14329 36.191827 112.01367 34.896484 C 113.95109 33.592923 115.28309 31.481887 115.74414 29.195312 C 116.23626 26.722986 116.19816 24.103222 115.41992 21.693359 C 114.69564 19.438018 113.02524 17.549041 110.95703 16.439453 C 108.21522 14.935344 105.04604 14.506897 101.9707 14.335938 C 97.672423 14.331063 93.374453 14.335609 89.076172 14.333984 z M 100.33008 18.933594 C 102.58631 18.945094 104.90713 19.042401 107.0293 19.890625 C 108.51056 20.472542 109.76892 21.673643 110.26758 23.208984 C 110.82019 24.879121 110.822 26.714241 110.44922 28.423828 C 110.07155 30.164649 108.83608 31.668773 107.21094 32.378906 C 104.79939 33.449044 102.09821 33.434016 99.511719 33.457031 C 97.81137 33.452031 96.112458 33.461172 94.412109 33.451172 C 94.412109 28.613367 94.413734 23.777568 94.412109 18.941406 C 96.383858 18.923331 98.356693 18.936969 100.33008 18.933594 z "
          style="fill:#ffffff;"/>
    <path d="m 185.06145,11.46739 c 6.01792,0 12.03584,0 18.05377,0 -0.001,1.204602 -0.001,2.409204 0,3.613806 -4.58048,0.0039 -9.15964,-0.0066 -13.73881,0.0053 0.0301,3.616436 0.001,7.232874 0.0143,10.850624 4.57394,0 9.14918,0 13.72442,0 -0.001,1.22959 -0.001,2.460493 -0.001,3.690081 -4.57524,0 -9.15048,0 -13.72572,0 0,5.127449 0,10.253583 0,15.381033 -1.43614,0.0026 -2.87359,0 -4.30973,0.0013 -0.007,-11.180707 0.0169,-22.361414 -0.0169,-33.542121 z"
          style="fill:#ffffff;"/>
    <path d="m 245.20274,18.564811 c 1.09346,-0.18937 2.20261,-0.19463 3.30914,-0.17885 0.004,1.208547 0.001,2.41578 0.002,3.624327 -1.66764,0.03814 -3.42031,0.14072 -4.91531,0.958686 -0.57288,0.312986 -1.08822,0.743011 -1.4466,1.294025 -0.96658,1.345315 -1.08561,3.065423 -1.1994,4.664546 -0.006,5.360216 -0.001,10.721747 -0.002,16.081965 -1.42698,0 -2.85265,0.0013 -4.27832,-0.0013 -0.002,-5.272106 0.002,-10.544214 -0.002,-15.816321 0.10722,-2.561751 0.51665,-5.283942 2.13591,-7.359119 1.512,-1.993643 3.99843,-2.932602 6.39723,-3.267944 z"
          style="fill:#ffffff;"/>
    <path transform="scale(0.8,0.8)"
          d="M 136.63477 22.984375 C 133.98124 23.16684 131.26551 23.844754 129.11719 25.490234 C 126.90836 27.104478 125.58441 29.697484 125.05469 32.345703 C 124.52006 34.568168 124.66829 36.863703 124.65039 39.128906 C 124.65039 40.825345 124.65006 42.520358 124.64844 44.216797 C 124.77106 47.057343 125.37782 49.995116 127.06836 52.335938 C 128.49077 54.362786 130.73779 55.675816 133.09375 56.298828 C 135.89606 57.017182 138.84006 57.066379 141.69141 56.640625 C 144.24847 56.247748 146.81814 55.243484 148.60352 53.298828 C 150.3807 51.372254 151.20992 48.763292 151.50586 46.197266 C 151.68248 44.832882 151.6118 43.454632 151.62305 42.082031 C 151.6193 39.78395 151.62914 37.483629 151.61914 35.185547 C 151.42294 31.983356 150.61996 28.575311 148.26562 26.255859 C 146.12875 24.062984 143.02893 23.208246 140.06641 22.986328 C 138.92194 22.979828 137.77759 22.98275 136.63477 22.984375 z M 138.39258 27.542969 C 139.79292 27.561237 141.18781 27.817348 142.45898 28.410156 C 144.28686 29.263305 145.45868 31.111773 145.88867 33.044922 C 146.21893 34.330399 146.24357 35.662114 146.30078 36.980469 C 146.27791 39.176633 146.33653 41.375483 146.26953 43.568359 C 146.20903 45.815482 145.80857 48.217758 144.29297 49.966797 C 142.81007 51.674741 140.44697 52.277018 138.26758 52.244141 C 136.09473 52.304966 133.73752 51.807914 132.16797 50.195312 C 130.60496 48.567916 130.13239 46.233792 130.00977 44.050781 C 129.95252 41.917082 129.99925 39.780184 129.98438 37.646484 C 129.95975 35.257993 130.09879 32.71822 131.37891 30.628906 C 132.34155 29.030009 134.08632 28.048924 135.89062 27.746094 C 136.70914 27.606371 137.55302 27.532016 138.39258 27.542969 z "
          style="fill:#ffffff;"/>
    <path transform="scale(0.8,0.8)"
          d="M 208.49609 22.978516 C 208.0363 22.976259 207.57547 22.986284 207.11914 23.046875 C 204.26676 23.313422 201.33887 24.262099 199.2793 26.347656 C 197.71792 27.85834 196.75211 29.892296 196.28125 31.998047 C 195.69594 34.162979 195.85947 36.418874 195.83984 38.634766 C 195.84109 40.663257 195.8368 42.694163 195.8418 44.722656 C 195.95461 46.963203 196.44023 49.216036 197.49805 51.205078 C 198.23705 52.543157 199.25766 53.738551 200.52148 54.601562 C 202.16461 55.76211 204.12295 56.396021 206.09961 56.673828 C 208.4801 57.037114 210.91448 56.982606 213.28516 56.568359 C 216.01062 56.088359 218.74454 54.820997 220.39258 52.509766 C 222.25642 50.001274 222.72978 46.777829 222.81641 43.728516 C 222.81266 41.262764 222.81266 38.793876 222.81641 36.328125 C 222.73629 34.381826 222.57672 32.412221 221.94727 30.554688 C 221.40773 28.795786 220.43446 27.161734 219.08398 25.914062 C 216.57433 23.721187 213.13704 22.903825 209.87695 22.984375 C 209.41753 22.995056 208.95654 22.980775 208.49609 22.978516 z M 208.67969 27.554688 C 209.89579 27.491809 211.12239 27.614687 212.30078 27.917969 C 213.85724 28.327284 215.29844 29.298167 216.10938 30.716797 C 217.1492 32.446111 217.38191 34.517226 217.4375 36.498047 C 217.4425 38.850376 217.45322 41.204312 217.43359 43.556641 C 217.35022 45.775818 216.97635 48.148778 215.5 49.894531 C 214.28196 51.364119 212.37678 52.043983 210.5293 52.205078 C 208.58207 52.330003 206.52807 52.238893 204.77539 51.287109 C 203.24345 50.491494 202.17857 48.976173 201.70117 47.333984 C 200.9916 45.108231 201.16547 42.742776 201.14258 40.441406 C 201.1572 38.79264 201.10736 37.143216 201.17773 35.496094 C 201.30688 33.57445 201.72822 31.572141 202.95117 30.035156 C 204.04168 28.64776 205.75532 27.896672 207.46875 27.679688 C 207.86972 27.617219 208.27432 27.575647 208.67969 27.554688 z "
          style="fill:#ffffff;"/>
    <path transform="scale(0.8,0.8)"
          d="M 272.69336 22.980469 C 269.69996 23.070546 266.65801 23.877503 264.32617 25.816406 C 261.95548 27.784075 260.78935 30.837581 260.42969 33.835938 C 260.16132 35.861141 260.29675 37.904694 260.26562 39.941406 C 260.2967 41.912365 260.1652 43.893038 260.41211 45.857422 C 260.73421 49.005366 261.96214 52.251193 264.51758 54.240234 C 267.44087 56.554754 271.34776 57.024792 274.95117 56.886719 C 275.60352 56.807794 276.26174 56.809562 276.91406 56.710938 C 279.70493 56.33943 282.54397 55.269975 284.42578 53.082031 C 285.87926 51.395456 286.67266 49.224029 287.00781 47.041016 C 287.3283 45.408689 287.22286 43.739944 287.24023 42.087891 C 287.23898 39.783234 287.24023 37.478483 287.24023 35.173828 C 287.06202 31.807253 286.1279 28.209669 283.52344 25.898438 C 280.94674 23.592136 277.32889 22.879175 273.9707 22.984375 C 273.54725 22.96917 273.12099 22.967601 272.69336 22.980469 z M 274.13477 27.546875 C 275.0346 27.572149 275.93244 27.695646 276.80469 27.925781 C 278.2647 28.310439 279.60922 29.19766 280.44141 30.476562 C 281.41911 31.957659 281.75466 33.755891 281.87891 35.5 C 281.94753 37.858901 281.89661 40.218913 281.91211 42.576172 C 281.93198 44.517541 281.77891 46.518459 280.97461 48.308594 C 280.38765 49.64832 279.33308 50.782521 278.01367 51.412109 C 276.25938 52.268547 274.25533 52.331131 272.3457 52.191406 C 270.69769 52.010581 269.018 51.448861 267.83594 50.232422 C 266.56721 48.948587 265.99683 47.150148 265.75977 45.394531 C 265.52429 43.255901 265.61577 41.099663 265.59961 38.951172 C 265.60211 36.865146 265.54245 34.735831 266.11133 32.708984 C 266.46774 31.387341 267.15607 30.127904 268.20898 29.240234 C 269.11966 28.442973 270.27533 27.988261 271.44922 27.759766 C 272.33372 27.594561 273.23493 27.521601 274.13477 27.546875 z "
          style="fill:#ffffff;"/>
    <path transform="scale(0.8,0.8)"
          d="M 327.43164 22.980469 C 323.99215 23.110314 320.41043 24.250019 318.0332 26.861328 C 315.94048 29.146258 315.07966 32.297105 314.95703 35.339844 C 314.95578 38.029158 314.95703 40.718889 314.95703 43.408203 C 314.90961 45.538613 315.19041 47.71962 316.06836 49.675781 C 317.09021 52.082355 319.17739 53.922195 321.57422 54.878906 C 325.22343 56.392871 329.24399 56.289669 333.11719 56.261719 C 333.11594 54.724731 333.11594 53.187378 333.11719 51.650391 C 330.55359 51.627378 327.96219 51.783009 325.43945 51.242188 C 323.9631 50.924928 322.44476 50.265949 321.55859 48.980469 C 320.64466 47.699923 320.42269 46.090958 320.29688 44.560547 C 320.27688 42.775343 320.29406 40.988331 320.28906 39.203125 L 341.92773 39.203125 C 341.87203 37.090799 342.0866 34.957838 341.71875 32.865234 C 341.39665 30.927156 340.72371 29.016606 339.54492 27.433594 C 337.7612 25.046745 334.92674 23.640694 332.03125 23.205078 C 330.51564 22.886179 328.96684 23.005119 327.43164 22.980469 z M 327.82031 27.554688 C 329.21674 27.488885 330.62533 27.642291 331.9668 28.042969 C 333.57722 28.531189 335.05906 29.604972 335.82422 31.138672 C 336.38499 32.192368 336.57261 33.398469 336.57422 34.582031 C 331.14456 34.580406 325.71709 34.588328 320.28906 34.580078 C 320.49345 32.957611 320.85716 31.262042 321.92969 29.976562 C 323.01693 28.602316 324.73622 27.905106 326.43164 27.691406 C 326.89148 27.621954 327.35484 27.576622 327.82031 27.554688 z "
          style="fill:#ffffff;"/>
    <path d="m 277.68329,18.854126 c 1.84424,-0.0066 3.68976,-0.02762 5.53267,0.01184 1.08822,1.388711 2.25232,2.718244 3.37062,4.0846 1.48845,1.771397 2.9246,3.592766 4.45359,5.329969 2.50083,-3.089094 4.9938,-6.186079 7.49855,-9.273857 0.11119,-0.19463 0.35053,-0.153864 0.5441,-0.164384 1.58395,0.0079 3.16788,-0.0013 4.75181,0.0066 -3.56679,4.137204 -7.18723,8.228378 -10.7632,12.357692 4.02721,4.619832 8.12244,9.180488 12.16272,13.788486 l 0,0.0144 c -1.81544,0.0013 -3.62958,-0.004 -5.44372,0.0026 -3.11164,-3.616437 -6.18534,-7.267065 -9.29305,-10.887447 -2.90759,3.616436 -5.80081,7.246024 -8.68354,10.883501 -1.84947,-0.0013 -3.6976,0.0092 -5.54576,-0.0052 2.43151,-2.753753 4.88917,-5.485148 7.31934,-8.240215 1.63103,-1.796383 3.19535,-3.654574 4.85646,-5.423339 0.006,-0.05128 0.0179,-0.15518 0.0249,-0.206466 -3.61259,-4.07671 -7.20554,-8.173146 -10.78544,-12.278788 z"
          style="fill:#ffffff;"/>
    <path d="m 24.741363,45.079208 c 6.994967,-0.0013 13.991242,0.004 20.98621,-0.0026 2.113662,4.163504 4.178931,8.351996 6.279514,12.52339 l -27.26834,0 c 0.0013,-4.174024 -0.0026,-8.346734 0.0026,-12.52076 z"
          style="fill:#ffffff;"/>
</svg>
